<?xml version="1.0" encoding="utf-8"?>
<!-- Generator: Adobe Illustrator 25.0.0, SVG Export Plug-In . SVG Version: 6.00 Build 0)  -->
<svg version="1.1" id="Laag_1" xmlns="http://www.w3.org/2000/svg" xmlns:xlink="http://www.w3.org/1999/xlink" x="0px" y="0px"
	 viewBox="0 0 841.89 595.28" style="enable-background:new 0 0 841.89 595.28;" xml:space="preserve">
<style type="text/css">
	.st0{fill:#F59F2A;}
	.st1{fill:#00569D;}
</style>
<g>
	<g>
		<path class="st0" d="M460.76,235.64c2.38-3.8,2.12-7.52-0.38-8.26c-2.5-0.74-7.06,1.42-10,4.8l-29.44,33.87l-29.44-33.87
			c-2.94-3.38-7.5-5.54-10-4.8c-2.5,0.74-2.75,4.46-0.38,8.26l19.56,31.25c2.42,4.41,2.83,9.65,1.11,14.39l-5.76,13.46
			c-1.8,4.16-1.46,8.62,0.71,9.96c2.19,1.33,6.25-0.4,9.16-3.85l15.03-18.14l15.03,18.14c2.91,3.45,6.98,5.17,9.16,3.85
			c2.17-1.34,2.51-5.8,0.71-9.96l-5.76-13.46c-1.72-4.73-1.31-9.97,1.11-14.39L460.76,235.64z"/>
		<path class="st0" d="M409.08,235.95c-0.08-5.26,7.42-11.25,13.35-11.39c5.92-0.14,10.32,8.09,10.38,11.39s-3.75,13.55-12.65,13.69
			S409.13,239.25,409.08,235.95z"/>
	</g>
	<g>
		<g>
			<path class="st1" d="M289.01,327.53h-15.67v42.62H262.8v-42.62h-15.46v-8.54h41.67V327.53z"/>
			<path class="st1" d="M301.22,370.85c-5.57,0-10.11-1.71-13.61-5.13c-3.5-3.42-5.25-7.97-5.25-13.67v-0.98
				c0-3.82,0.74-7.23,2.21-10.24c1.48-3.01,3.57-5.33,6.27-6.96c2.71-1.63,5.79-2.44,9.26-2.44c5.2,0,9.29,1.64,12.28,4.92
				c2.99,3.28,4.48,7.93,4.48,13.95v4.15h-24.21c0.33,2.48,1.32,4.47,2.97,5.97c1.65,1.5,3.74,2.25,6.27,2.25
				c3.91,0,6.97-1.42,9.17-4.25l4.99,5.59c-1.52,2.16-3.58,3.84-6.18,5.04C307.26,370.25,304.38,370.85,301.22,370.85z
				 M300.06,339.62c-2.01,0-3.65,0.68-4.9,2.05c-1.25,1.37-2.06,3.32-2.41,5.86h14.12v-0.81c-0.05-2.26-0.66-4.01-1.83-5.24
				C303.87,340.23,302.21,339.62,300.06,339.62z"/>
			<path class="st1" d="M346.33,370.15c-0.47-0.91-0.81-2.05-1.02-3.41c-2.46,2.74-5.66,4.11-9.59,4.11c-3.72,0-6.81-1.08-9.26-3.23
				c-2.45-2.16-3.67-4.87-3.67-8.15c0-4.03,1.49-7.12,4.48-9.27c2.99-2.15,7.3-3.24,12.95-3.27h4.67v-2.18
				c0-1.76-0.45-3.16-1.35-4.22c-0.9-1.05-2.32-1.58-4.27-1.58c-1.71,0-3.05,0.41-4.02,1.23c-0.97,0.82-1.46,1.94-1.46,3.37h-10.15
				c0-2.2,0.68-4.24,2.04-6.11c1.36-1.87,3.28-3.34,5.76-4.41c2.48-1.07,5.27-1.6,8.36-1.6c4.68,0,8.4,1.18,11.15,3.53
				c2.75,2.35,4.13,5.66,4.13,9.92v16.48c0.02,3.61,0.53,6.34,1.51,8.19v0.6H346.33z M337.93,363.08c1.5,0,2.88-0.33,4.15-1
				c1.26-0.67,2.2-1.56,2.81-2.69v-6.54h-3.79c-5.08,0-7.79,1.76-8.12,5.27l-0.03,0.6c0,1.26,0.44,2.31,1.33,3.13
				C335.17,362.67,336.39,363.08,337.93,363.08z"/>
			<path class="st1" d="M373.85,332.13l0.32,4.25c2.69-3.3,6.34-4.95,10.93-4.95c4.9,0,8.26,1.93,10.08,5.8
				c2.67-3.86,6.48-5.8,11.42-5.8c4.12,0,7.19,1.2,9.21,3.6c2.01,2.4,3.02,6.01,3.02,10.84v24.28h-10.19V345.9
				c0-2.15-0.42-3.73-1.26-4.73c-0.84-1-2.33-1.49-4.46-1.49c-3.04,0-5.15,1.45-6.32,4.36l0.04,26.1h-10.15v-24.21
				c0-2.2-0.43-3.8-1.3-4.78c-0.87-0.98-2.34-1.48-4.43-1.48c-2.88,0-4.97,1.19-6.25,3.58v26.88h-10.15v-38.01H373.85z"/>
		</g>
		<g>
			<path class="st1" d="M427.76,351.57c0-5.67,1.27-10.19,3.8-13.55c2.53-3.36,5.97-5.05,10.31-5.05c4.93,0,8.69,1.95,11.27,5.84
				v-20.49h4.02v51.85h-3.78l-0.17-4.86c-2.59,3.69-6.39,5.54-11.41,5.54c-4.21,0-7.6-1.69-10.18-5.08
				c-2.58-3.39-3.87-7.96-3.87-13.72V351.57z M431.85,352.28c0,4.66,0.93,8.33,2.8,11.02c1.87,2.69,4.5,4.03,7.9,4.03
				c4.97,0,8.51-2.19,10.6-6.58v-17.15c-2.09-4.75-5.6-7.12-10.53-7.12c-3.4,0-6.04,1.33-7.93,4
				C432.79,343.15,431.85,347.08,431.85,352.28z"/>
			<path class="st1" d="M487.17,337.09c-0.86-0.16-1.77-0.24-2.73-0.24c-2.52,0-4.65,0.7-6.4,2.11c-1.74,1.41-2.99,3.45-3.73,6.13
				v25.08h-4.02v-36.52h3.95l0.07,5.81c2.14-4.32,5.57-6.48,10.3-6.48c1.12,0,2.01,0.15,2.67,0.44L487.17,337.09z"/>
			<path class="st1" d="M492.07,323.1c0-0.76,0.25-1.4,0.74-1.93c0.49-0.52,1.17-0.79,2.02-0.79s1.54,0.26,2.04,0.79
				c0.51,0.53,0.76,1.17,0.76,1.93c0,0.76-0.25,1.4-0.76,1.91c-0.51,0.51-1.19,0.77-2.04,0.77s-1.53-0.26-2.02-0.77
				C492.31,324.5,492.07,323.86,492.07,323.1z M496.83,370.17h-4.05v-36.52h4.05V370.17z"/>
			<path class="st1" d="M519.17,364.6l11.11-30.95h4.15l-13.64,36.52h-3.27l-13.7-36.52h4.15L519.17,364.6z"/>
			<path class="st1" d="M554.75,370.85c-3.11,0-5.91-0.76-8.42-2.3c-2.51-1.53-4.46-3.66-5.86-6.4c-1.4-2.73-2.09-5.8-2.09-9.2
				v-1.45c0-3.51,0.68-6.67,2.04-9.49c1.36-2.81,3.26-5.02,5.69-6.63c2.43-1.61,5.06-2.41,7.9-2.41c4.43,0,7.95,1.51,10.55,4.54
				c2.6,3.03,3.9,7.16,3.9,12.41v2.26H542.4v0.78c0,4.14,1.19,7.59,3.56,10.35c2.37,2.76,5.36,4.13,8.96,4.13
				c2.16,0,4.07-0.39,5.72-1.18c1.65-0.79,3.16-2.05,4.51-3.78l2.53,1.92C564.71,368.7,560.4,370.85,554.75,370.85z M554.01,336.42
				c-3.04,0-5.6,1.11-7.68,3.34c-2.08,2.23-3.35,5.22-3.8,8.98h21.91v-0.44c-0.11-3.51-1.11-6.37-3-8.57
				C559.54,337.52,557.07,336.42,554.01,336.42z"/>
			<path class="st1" d="M594.45,337.09c-0.85-0.16-1.77-0.24-2.73-0.24c-2.52,0-4.65,0.7-6.4,2.11c-1.74,1.41-2.99,3.45-3.73,6.13
				v25.08h-4.02v-36.52h3.95l0.07,5.81c2.14-4.32,5.57-6.48,10.3-6.48c1.12,0,2.01,0.15,2.67,0.44L594.45,337.09z"/>
		</g>
	</g>
</g>
</svg>
