<?xml version="1.0" encoding="utf-8"?>
<!-- Generator: Adobe Illustrator 25.0.0, SVG Export Plug-In . SVG Version: 6.00 Build 0)  -->
<svg version="1.1" id="Laag_1" xmlns="http://www.w3.org/2000/svg" xmlns:xlink="http://www.w3.org/1999/xlink" x="0px" y="0px"
	 viewBox="0 0 841.89 595.28" style="enable-background:new 0 0 841.89 595.28;" xml:space="preserve">
<style type="text/css">
	.st0{fill:#F59F2A;}
</style>
<g>
	<g>
		<path class="st0" d="M460.76,268.05c2.38-3.8,2.12-7.52-0.38-8.26c-2.5-0.74-7.06,1.42-10,4.8l-29.44,33.87l-29.44-33.87
			c-2.94-3.38-7.5-5.54-10-4.8c-2.5,0.74-2.75,4.46-0.38,8.26l19.56,31.25c2.42,4.41,2.83,9.65,1.11,14.39l-5.76,13.46
			c-1.8,4.16-1.46,8.62,0.71,9.96c2.19,1.33,6.25-0.4,9.16-3.85l15.03-18.14l15.03,18.14c2.91,3.45,6.97,5.17,9.16,3.85
			c2.17-1.34,2.51-5.8,0.71-9.96l-5.76-13.46c-1.72-4.73-1.31-9.97,1.11-14.39L460.76,268.05z"/>
		<path class="st0" d="M409.08,268.36c-0.07-5.26,7.43-11.25,13.35-11.39c5.93-0.14,10.33,8.09,10.38,11.39
			c0.05,3.3-3.75,13.55-12.65,13.69C411.26,282.19,409.13,271.66,409.08,268.36z"/>
	</g>
</g>
</svg>
